# xmcd
#
# Track frame offsets:
#	150
#	18258
#	31061
#	46949
#	62108
#	82500
#	97817
#	106078
#	118169
#	132944
#	155249
#	167243
#	186522
#
# Disc length: 2576 seconds
#
# Revision: 0
# Processed by: cddbd v1.5.2PL0 Copyright (c) Steve Scherf et al.
# Submitted via: EZCDAudioConverter 3.1.5.1
#
DISCID=9e0a0e0d
DTITLE=Karen Lovely - The Prohibition Blues
DYEAR=2015
DGENRE=Blues
TTITLE0=Any Kind Of Man
TTITLE1=Fifteen Cents
TTITLE2=Gimme a Pigfoot
TTITLE3=Yellow Dog Blues
TTITLE4=Gin House Blues
TTITLE5=Last Kind Words
TTITLE6=Pick Poor Robin
TTITLE7=Prove It On Me
TTITLE8=Everybody Loves My Baby
TTITLE9=Nobody Knows You
TTITLE10=Keep Sittin' On It
TTITLE11=Pennies From Heaven
TTITLE12=Karen speaks
EXTD=
EXTT0=
EXTT1=
EXTT2=
EXTT3=
EXTT4=
EXTT5=
EXTT6=
EXTT7=
EXTT8=
EXTT9=
EXTT10=
EXTT11=
EXTT12=
PLAYORDER=
